<?xml version="1.0" encoding="UTF-8"?>
<svg xmlns="http://www.w3.org/2000/svg" version="1.1" viewBox="0 0 95.4 95.4">
  <defs>
    <style>
      .cls-1 {
        fill: #606060;
      }

      .cls-2 {
        fill: #e6e6e6;
      }
    </style>
  </defs>
  <!-- Generator: Adobe Illustrator 28.7.2, SVG Export Plug-In . SVG Version: 1.2.0 Build 154)  -->
  <g>
    <g id="Calque_1">
      <rect class="cls-2" y="0" width="95.4" height="95.4"/>
      <g>
        <path class="cls-1" d="M63.2,33.6s0,0,0,0l2.1-2.1s0,0,0,0l1.9-1.9-2.1-2.1-3.6,3.6h-25.2c-2.7,0-5,2.3-5,5v25.2l-4.2,4.2,2.1,2.1,2.6-2.6s0,0,0,0l1.9-1.9s0,0,0,0l29.4-29.4ZM33.8,36.2c0-1.4,1.1-2.6,2.6-2.6h22.7l-25.2,25.2v-22.7Z"/>
        <path class="cls-1" d="M43,38.8c-2.3,0-4.1,1.8-4.1,4.1s1.9,4.1,4.1,4.1,4.1-1.8,4.1-4.1-1.8-4.1-4.1-4.1ZM43,44.4c-.9,0-1.6-.7-1.6-1.6,0-.9.8-1.6,1.6-1.6s1.6.7,1.6,1.6-.7,1.6-1.6,1.6Z"/>
        <path class="cls-1" d="M67.5,33.6l-1.9,1.9c0,.2.1.5.1.7v16.1l-6-5.9c-.7-.7-1.5-1-2.4-1s-1.8.4-2.4,1l-19,19-1.8,1.9c.7.4,1.5.6,2.4.6h26.8c2.7,0,5-2.3,5-5v-26.7c0-.9-.3-1.8-.7-2.6ZM65.7,63c0,.7-.2,1.3-.7,1.8-.5.5-1.1.8-1.8.8h-23.8l17.4-17.4c.3-.3,1-.3,1.3,0l7.7,7.7v7.2Z"/>
      </g>
    </g>
  </g>
</svg>