<?xml version="1.0" encoding="utf-8"?>
<!-- Generator: Adobe Illustrator 26.0.3, SVG Export Plug-In . SVG Version: 6.00 Build 0)  -->
<svg version="1.1" id="Calque_1" xmlns="http://www.w3.org/2000/svg" xmlns:xlink="http://www.w3.org/1999/xlink" x="0px" y="0px"
	 viewBox="0 0 142 74" style="enable-background:new 0 0 142 74;" xml:space="preserve">
<style type="text/css">
	.st0{fill:#1D1D1B;}
</style>
<g>
	<g>
		<path class="st0" d="M3.4,70.4c17.6-1.3,34.2-8.2,48.9-17.7c3.6-2.3,7.2-4.8,10.5-7.5c3-2.5,5.9-5.4,7.8-9
			c1.8-3.5,2.8-7.9,1.4-11.6c-1.6-4.3-5.9-6.4-10.4-6.1c-9.1,0.6-15.3,8.1-18.2,16.1c-3,8.2-3.9,18,2.4,24.9
			c6.1,6.7,15.6,7.9,24.1,6.6c8.6-1.3,17.1-4.8,24.5-9.4c7.5-4.7,14-10.7,19.5-17.6c2.9-3.6,5.6-7.3,8.3-11.1
			c2.7-3.8,5.4-7.5,7.8-11.5c1.2-2,2.2-4,3.2-6c0.6-1.2,0.3-2.7-0.9-3.4c-1.1-0.6-2.8-0.3-3.4,0.9c-3.5,7.6-8.6,14.3-13.5,21.1
			c-4.8,6.6-10,13.1-16.3,18.3c-5.8,4.8-12.5,8.6-19.5,11.1c-7.3,2.6-15.8,4.7-23.4,2c-2.9-1-5.7-2.9-7.5-5.5
			c-2.2-3.1-2.6-6.9-2.3-10.6c0.4-3.7,1.5-7.5,3.1-10.9c1.6-3.3,3.9-6.3,7.1-8.2c2.6-1.5,6.4-2.6,9.2-1c2.8,1.6,2.2,5.6,1.3,8.1
			c-1.1,3.1-3.4,5.7-5.8,7.9c-2.7,2.5-5.7,4.5-8.7,6.6c-13,8.8-27.6,15.6-43.2,18c-1.9,0.3-3.8,0.5-5.7,0.6
			c-1.3,0.1-2.5,1.1-2.5,2.5C0.9,69.1,2,70.5,3.4,70.4L3.4,70.4z"/>
	</g>
</g>
<g>
	<g>
		<path class="st0" d="M118.6,14c3-0.6,5.8-1.9,8.3-3.7c1-0.7,2-1.4,3-2c0.3-0.2,0.7-0.4,1-0.5c0.1-0.1,0.3-0.1,0.4-0.2
			c-0.3,0.1,0.1,0,0.2-0.1c0.8-0.3,1.7-0.6,2.6-0.8c-1-0.6-2.1-1.2-3.1-1.7c0.8,2.9,1.3,5.6,1.4,8.5c0.1,2.8-0.1,5.2-0.8,7.8
			c-0.4,1.3,0.5,2.7,1.7,3.1c1.3,0.4,2.7-0.4,3.1-1.7c1.8-6.1,1.2-12.9-0.5-19c-0.4-1.3-1.8-2.1-3.1-1.7c-3,0.7-5.6,2.1-8.1,3.9
			c-1,0.7-2,1.4-3.1,2c-0.3,0.2-0.7,0.3-1,0.5c0.2-0.1,0.1,0-0.1,0c-0.2,0.1-0.4,0.1-0.6,0.2c-0.9,0.3-1.7,0.5-2.6,0.7
			c-1.3,0.3-2.1,1.8-1.7,3.1C115.9,13.6,117.3,14.2,118.6,14L118.6,14z"/>
	</g>
</g>
</svg>
