<?xml version="1.0" encoding="utf-8"?>
<!-- Generator: Adobe Illustrator 25.3.1, SVG Export Plug-In . SVG Version: 6.00 Build 0)  -->
<svg version="1.1" id="Calque_1" xmlns="http://www.w3.org/2000/svg" xmlns:xlink="http://www.w3.org/1999/xlink" x="0px" y="0px"
	 viewBox="0 0 380 180" style="enable-background:new 0 0 380 180;" xml:space="preserve">
<style type="text/css">
	.st0{fill:#2F323C;}
	.st1{fill:#4A5260;}
	.st2{fill:#FFFFFF;}
	.st3{fill:none;stroke:#FFFFFF;stroke-width:2;stroke-miterlimit:10;}
</style>
<rect class="st0" width="380" height="180"/>
<circle class="st1" cx="190" cy="90" r="47.7"/>
<g>
	<path class="st2" d="M203.2,70.8h-28.3c-2.8,0-5,2.3-5,5v28.3c0,2.8,2.3,5,5,5h28.3c2.8,0,5-2.3,5-5V75.9
		C208.2,73.1,205.9,70.8,203.2,70.8z M171.8,104.2V75.9c0-1.7,1.4-3,3-3h28.3c1.7,0,3,1.4,3,3v17.8l-6.8-6.8c-1.3-1.3-3.4-1.3-4.7,0
		l-20.3,20.3C173,107,171.8,105.7,171.8,104.2z M203.2,107.2h-25.9l18.9-18.9c0.5-0.5,1.3-0.5,1.8,0l8.2,8.2v7.7
		C206.2,105.9,204.8,107.2,203.2,107.2z"/>
	<path class="st2" d="M181.9,87c2.2,0,4-1.8,4-4s-1.8-4-4-4s-4,1.8-4,4S179.7,87,181.9,87z M181.9,80.9c1.1,0,2,0.9,2,2
		c0,1.1-0.9,2-2,2c-1.1,0-2-0.9-2-2C179.9,81.8,180.8,80.9,181.9,80.9z"/>
</g>
<rect x="161.2" y="88.8" transform="matrix(0.7076 -0.7066 0.7066 0.7076 -8.4166 160.2598)" class="st1" width="56.5" height="3"/>
<line class="st3" x1="167.4" y1="109" x2="207.4" y2="69"/>
</svg>
