<?xml version="1.0" encoding="utf-8"?>
<!-- Generator: Adobe Illustrator 25.3.1, SVG Export Plug-In . SVG Version: 6.00 Build 0)  -->
<svg version="1.1" id="Calque_1" xmlns="http://www.w3.org/2000/svg" xmlns:xlink="http://www.w3.org/1999/xlink" x="0px" y="0px"
	 viewBox="0 0 380 180" style="enable-background:new 0 0 380 180;" xml:space="preserve">
<style type="text/css">
	.st0{fill:#EAEAEA;}
	.st1{fill:none;stroke:#B7B7B7;stroke-width:3;stroke-linecap:round;stroke-linejoin:round;stroke-miterlimit:10;}
</style>
<rect class="st0" width="380" height="180"/>
<g>
	<path class="st1" d="M226.5,60.3l-22.7-7.4c-0.3,0-0.8,0-1.1,0.2l-21.5,9.6c-0.6,0.2-0.9,0.8-0.9,1.4v11.3L154.4,87
		c-0.6,0.3-0.9,0.8-0.9,1.4v37c0,0.9,0.6,1.5,1.5,1.5h47.4h6.3H226c0.9,0,1.5-0.6,1.5-1.5V61.8C227.5,61.2,227.1,60.6,226.5,60.3z"
		/>
</g>
<polyline class="st1" points="171.7,79.1 189.5,70.9 189.5,125.6 "/>
<polyline class="st1" points="189.5,70.9 209.8,76.1 209.8,126.9 "/>
<line class="st1" x1="215.9" y1="67" x2="215.9" y2="71.5"/>
<line class="st1" x1="215.9" y1="80.2" x2="215.9" y2="84.7"/>
<line class="st1" x1="215.9" y1="93.3" x2="215.9" y2="97.8"/>
<line class="st1" x1="215.9" y1="106.5" x2="215.9" y2="111"/>
<line class="st1" x1="159.5" y1="95.9" x2="182" y2="87.3"/>
<line class="st1" x1="159.5" y1="105.8" x2="182" y2="100.5"/>
<line class="st1" x1="159.5" y1="115.4" x2="182" y2="113.9"/>
</svg>
