<?xml version="1.0" encoding="utf-8"?>
<!-- Generator: Adobe Illustrator 27.4.0, SVG Export Plug-In . SVG Version: 6.00 Build 0)  -->
<svg version="1.1" id="Calque_1" xmlns="http://www.w3.org/2000/svg" xmlns:xlink="http://www.w3.org/1999/xlink" x="0px" y="0px"
	 viewBox="0 0 328.5 175.3" style="enable-background:new 0 0 328.5 175.3;" xml:space="preserve">
<style type="text/css">
	.st0{fill:none;stroke:#68A8DD;stroke-width:4;stroke-miterlimit:10;}
	.st1{fill:none;stroke:#55719B;stroke-width:6;stroke-miterlimit:10;}
	.st2{fill:#68A8DD;}
	.st3{fill:#63C7F2;}
	.st4{fill:#656972;}
	.st5{fill:#F6EB6A;}
	.st6{fill:#55719B;}
</style>
<path class="st0" d="M233.1,55.1v8c-29.2,0.6-43.6,20.6-43.6,20.6l-6.6,6.5"/>
<path class="st0" d="M252.5,54.3v7c0,0,43.8,5,53.4,43.6c0,0,7.4,40.2-11.4,47h-51.4c0,0-12.8,0.6-16.4-10.8l-11.4,10.8
	c0,0-28.4,3.8-23.2-7.4c0,0,7.2-21.8,25.6-21.6c0,0,17.8-1.6,26.6,7.8c0,0,7.2,9.6,3.8,21.8"/>
<path class="st0" d="M231,123.8c0,0,28.7-16.2,66.5-2.2"/>
<path class="st0" d="M262.1,91.5c0,0-1.9,17.2,2.2,24.5"/>
<path class="st0" d="M214.5,93.9c0,0-1.9,20.4,2.2,29"/>
<circle class="st0" cx="241.7" cy="43" r="15.1"/>
<line class="st1" x1="49.8" y1="161.1" x2="218.5" y2="161.1"/>
<g>
	<path class="st2" d="M257.1,43.5c-0.8-2.3,1.2-4.5,3.1-5.9c2.2-1.6,4.7-3,7.4-3.5c5.9-1,12.3,2.9,14,8.7c0.3,1.1,0.7,2.3,1.7,2.6
		c0.5,0.1,0.9,0,1.4-0.1c3.6-0.9,7.4-1.6,10.8-0.1c3.1,1.3,5.3,4.1,6.5,7.2c1.2,3.1,1.5,6.5,1.5,9.8c0,0.4,0,0.9,0.3,1.2
		c0.2,0.3,0.6,0.4,1,0.5c2.8,0.8,5.6,1.7,7.9,3.4c1.3,0.9,2.4,2,3.4,3.2c1.5,1.9,2.9,3.9,3.5,6.3c0.6,2.3,0.3,5-1.1,6.9
		c-1.7,2.5-5.3,3.5-8.1,2.4c-3.3-1.3-5-4.9-6-8.2c-0.8-2.7-1.4-5.5-1.8-8.3c-2.7,1-5.7,1-8.6,0.8c-2.4-0.1-5-0.4-7-1.7
		c-1.1-0.8-2-1.8-2.8-2.9c-1.8-2.5-3.4-5.1-4.8-7.8c-3.9,1.1-8.2,1.2-12.1-0.1s-7.3-4.2-8.9-7.9c-1.3-3.1-1.4-6.5-1.2-9.9"/>
	<g>
		<path class="st2" d="M259.6,42.8c-0.4-1.4,1.5-2.8,2.5-3.5c1.7-1.2,3.4-2.2,5.4-2.7c3-0.7,6.2,0.2,8.5,2.1c1.2,1,2.2,2.2,2.9,3.6
			c0.7,1.5,0.8,3.2,2.1,4.4c1.9,1.8,4.4,0.8,6.6,0.3c1.9-0.4,4-0.6,5.9-0.1c3.4,0.9,5.6,4,6.6,7.2c0.6,2,0.9,4.1,1,6.2
			c0.1,2.4,0.2,4.7,2.8,5.6c1.9,0.7,3.9,1.1,5.7,2c1.8,0.9,3.3,2.2,4.6,3.8c2.2,2.5,4.5,6.5,2.7,9.8c-0.7,1.4-2.2,2.2-3.8,2.3
			c-1.6,0-2.9-0.8-3.8-2c-1.1-1.4-1.8-3.2-2.3-4.9c-0.8-2.5-1.4-5.1-1.7-7.7c-0.2-1.5-1.5-3-3.2-2.4c-2.3,0.8-4.6,0.9-7,0.8
			c-1.8-0.1-3.9-0.1-5.6-0.8c-1.8-0.8-2.9-2.6-4-4.1c-1.4-2-2.6-4.1-3.7-6.3c-0.5-1-1.8-1.4-2.8-1.1c-4.9,1.3-10.4,1.1-14.5-2.2
			c-4.2-3.3-4.8-8.3-4.5-13.4c0.2-3.2-4.8-3.2-5,0c-0.2,3.3-0.1,6.8,1.1,9.9c1.1,2.8,2.8,5.3,5.2,7.2c5.4,4.3,12.5,5,19.1,3.2
			c-0.9-0.4-1.9-0.8-2.8-1.1c1.2,2.5,2.7,4.8,4.3,7.1c1.5,2.1,3.2,4.2,5.6,5.3c2.4,1,5,1.2,7.5,1.4c2.9,0.1,5.8,0,8.6-1
			c-1.1-0.8-2.1-1.6-3.2-2.4c0.6,4.8,1.6,10,4.1,14.2c2.4,3.9,6.7,6.3,11.3,5c5-1.5,7.4-6.4,6.7-11.4c-0.7-4.8-4.3-9.4-8.2-12.2
			c-2.1-1.5-4.5-2.4-6.9-3.1c-0.2-0.1-1.5-0.6-1.7-0.5c0.3-0.3,0.6,1.8,0.5,0.4c0-0.3,0-0.6,0-0.9c-0.1-1.3-0.1-2.6-0.3-3.8
			c-0.6-4.7-2.3-9.4-6.2-12.5c-4.2-3.4-9.6-3.2-14.6-2c-0.1,0-0.8,0.1-0.9,0.2c-0.1,0-0.2,0.1-0.3,0.1c0.3,0,0.5,0.1,0.6,0.3
			c0,0-0.2-0.6-0.3-0.7c-0.3-1-0.7-2-1.2-2.9c-0.9-1.8-2.3-3.4-3.9-4.7c-3.9-3.1-9.2-4.3-14-2.7c-4.8,1.6-12,6-10.3,12
			C255.6,47.3,260.4,45.9,259.6,42.8L259.6,42.8z"/>
	</g>
</g>
<path class="st2" d="M241.7,27.9c-3.6,0-6.9,1.3-9.5,3.4c3.3,4.1,10.7,10.6,24.6,11.1C256.5,34.4,249.8,27.9,241.7,27.9z"/>
<path class="st0" d="M234.8,48.4c0,0,6.6,6.7,12.8,0"/>
<circle class="st3" cx="38.2" cy="92.1" r="22.1"/>
<circle class="st4" cx="77.5" cy="31.5" r="5"/>
<path class="st5" d="M45.6,37.5c-7.9,9.4-21.9,10.5-31.2,2.7S3.8,18.3,11.7,8.9"/>
<path class="st6" d="M179.4,154.5H56.7c-3.8,0-6.9-3.1-6.9-6.9V63.2c0-3.8,3.1-6.9,6.9-6.9h122.7c3.8,0,6.9,3.1,6.9,6.9v84.4
	C186.3,151.4,183.2,154.5,179.4,154.5z"/>
<path class="st0" d="M195.3,151.2c0,0,7.6-17.1,17-20.8"/>
<path class="st0" d="M203.8,153.2c0,0,7.6-17.1,17-20.8"/>
</svg>
